<?xml version="1.0" standalone="no"?>
<!DOCTYPE svg PUBLIC "-//W3C//DTD SVG 1.1//EN" "http://www.w3.org/Graphics/SVG/1.1/DTD/svg11.dtd" >
<svg xmlns="http://www.w3.org/2000/svg">
<metadata>
Created by FontPrep 20130207 at Mon Feb 23 19:17:11 2015
 By Gerhard Bliedung
Filia MyCandyThemes 2014 studiofily@gmail.com
</metadata>
<defs>
<font id="b705ea29b58229f9920e28a6de0a1ad9" horiz-adv-x='1024' >
  <font-face 
    font-family="AwayFontRegular"
    font-weight="400"
    font-stretch="normal"
    units-per-em="2048"
    panose-1="2 0 5 3 0 0 0 0 0 0"
    ascent="1638"
    descent="-410"
    x-height="682"
    bbox="-401 -944 1323 1742.33"
    underline-thickness="102"
    underline-position="-102"
    unicode-range="U+0020-00AF"
  />
<missing-glyph horiz-adv-x="1024" 
 />
    <glyph glyph-name=".notdef" unicode="&#xaf;" horiz-adv-x="1024" 
 />
    <glyph glyph-name=".notdef" unicode="&#xfffd;" horiz-adv-x="1024" 
 />
    <glyph glyph-name=".notdef" unicode="&#x2044;" horiz-adv-x="1024" 
 />
    <glyph glyph-name=".notdef" unicode="&#x2030;" horiz-adv-x="1024" 
 />
    <glyph glyph-name=".notdef" unicode="&#x2026;" horiz-adv-x="1024" 
 />
    <glyph glyph-name=".notdef" unicode="&#x192;" horiz-adv-x="1024" 
 />
    <glyph glyph-name=".notdef" unicode="&#x131;" horiz-adv-x="1024" 
 />
    <glyph glyph-name=".notdef" unicode="&#xf8;" horiz-adv-x="1024" 
 />
    <glyph glyph-name=".notdef" unicode="&#xe6;" horiz-adv-x="1024" 
 />
    <glyph glyph-name=".notdef" unicode="&#xdf;" horiz-adv-x="1024" 
 />
    <glyph glyph-name=".notdef" unicode="&#xd8;" horiz-adv-x="1024" 
 />
    <glyph glyph-name=".notdef" unicode="&#xc6;" horiz-adv-x="1024" 
 />
    <glyph glyph-name=".notdef" unicode="&#xbf;" horiz-adv-x="1024" 
 />
    <glyph glyph-name=".notdef" unicode="&#xb4;" horiz-adv-x="1024" 
 />
    <glyph glyph-name=".null" horiz-adv-x="0" 
 />
    <glyph glyph-name="nonmarkingreturn" horiz-adv-x="681" 
 />
    <glyph glyph-name="space" unicode=" " horiz-adv-x="374" 
 />
    <glyph glyph-name="a" unicode="a" horiz-adv-x="956" 
d="M131 463h8q77 62 174 186q8 6 29 15q47 30 55 61q4 6 4 10q4 8 -4 4q-20 14 -53 21q-27 0 -94 -82q-16 -16 -37 -47q-10 -10 -31 -41q-6 -2 -14 -25t-20 -46q-11 -23 -17 -38v-18zM588 1020h16q14 0 23 -6q20 -6 32 -21q33 -14 58 -30q18 -2 31 -29q32 -16 16 -88
q0 -14 -8 -41q8 -33 -23 -174q4 -10 -10 -21q-12 -4 -11 -23q2 -19 -8 -47t-14 -77q6 -37 6 -68q12 -31 -6 -65q-2 -39 -16 -86v-51q10 2 19 3t7 -3q12 16 23 24q36 53 143 195q12 29 29 43q18 31 38 55t35 56q15 30 13 36q25 31 37 43h20q16 6 33 -22q10 -12 -4 -31
t-78 -109q-25 -41 -49 -86q-6 -37 -45 -82q-43 -68 -90 -131q2 -8 -14 -26t-52 -81t-80 -95q-51 -33 -61 -38t-39 -12q-29 6 -63 19q2 4 -1 6t-14 2q-10 29 -28 45q-10 25 -35 78q-4 20 -10 53t-12 55t-7 54q-3 54 -24 86q-6 24 -38 10q-33 -14 -49 -36q-35 -46 -114 -95
q-20 0 -54 -14t-67 -2q-25 18 -57 30q-14 14 -33 15q-35 23 -47 51q-16 63 -10 117q6 16 2 20q20 35 28 51q31 33 33 49q25 49 47 78q33 33 39 62q10 25 29 39q37 49 57 75q72 66 88 99q16 2 38 6t28 4q27 12 32 0q31 0 43 -19q20 -6 52 -19t47 -15q14 4 22 10q16 41 29 81
t33 58t26 19q16 16 19 16z" />
    <glyph glyph-name="b" unicode="b" horiz-adv-x="890" 
d="M547 539q17 60 -27 143q-4 23 -18 14q-16 0 -31 -8q-61 -15 -104 -104q-3 -20 -13 -56t-14 -92q-12 -16 -4 -55q14 -20 4 -53h6q16 -10 31 -27q21 -14 33 1t12 40q16 14 24 31q41 35 66 45q16 25 25 39q6 23 10 82zM326 1389q2 0 0 4q10 20 10 26q14 18 4 35q8 8 0 14
q8 27 0 27q2 0 6 4v4l4 15q8 8 -4 8q-4 -20 -10 -32t-10 -40q2 -14 -3 -30t-6 -31h5q2 -4 4 -4zM-10 395v76q-6 76 0 145q6 25 4 72q6 51 0 53q31 162 26 181q4 66 8 111t11 196q6 20 6 47t-6 78q4 57 12 84l10 10q23 47 19 78q16 49 61 76q10 4 37 27t58 35q30 11 45 3
q6 16 6 37t4 33q27 8 43 4t24 -4q10 0 19 -15q16 -6 14 -20q10 -6 10 -14q16 -16 0 -31q0 -12 -10 -29q10 -2 0 -12q-6 -14 -10 -53q14 -6 0 -15q0 -28 -19 -49q8 0 5 -10q5 -10 -5 -6q-2 0 5 -8q10 7 1 -5t-6 -22q8 -6 0 -14h3l-15 -11v-8q6 -8 -10 -26q-4 0 6 -11
q-4 -8 -10 -14q-8 0 -14 -10q-2 -14 4 -15q14 0 0 -6q2 -2 -4 -20l-3 4q-2 0 -2 -8q8 -6 -6 -15q-2 0 6 -14l-6 -12v-8q6 -12 11 -41v10q8 20 0 20l14 11v-31q8 -18 0 -39q20 10 31 18q10 -63 24 -121q2 -8 -14 -18q-16 -35 -15 -61v-19q-2 -18 -12 -37q10 -25 -4 -45
q14 -6 4 -22v-23q14 -14 0 -31v-18q6 -20 -4 -35q-6 -20 -3 -26t7 -19q8 8 17 8q29 20 41 31q23 6 38 21q12 16 21 10l12 4q4 0 2 -4q80 16 123 -10q14 -6 31 -7q25 14 39 0q60 0 82 -22q31 -16 45 -37q16 -16 18 -35q8 0 9 -13t6 -67v-59q-4 -37 -5 -51q-16 -58 -30 -86
q-13 -29 -16 -37t-8 -13t-11 -24q2 -14 -18 -30t-31 -25q-16 -10 -31 -27q-16 -2 -38 -22t-34 -31q-4 -18 -18 -10q-20 20 -37 4q0 -4 -10 -4q-18 -17 -47 -13t-68 8t-82 19v-41q18 -23 12 -45q-2 -29 5 -59q10 -16 0 -46q-14 -31 -31 -24q-6 0 -19 9t-22 -9q-5 -20 -21 -20
t-31 -16q-15 -15 -31 -11q-51 13 -73 24q-22 10 -49 9q-20 8 -39 30q-2 8 -12 8q-14 23 -14 56q-18 152 -27 200q-8 47 -8 119zM356 1536q0 16 -6 6v-6l6 -2v2zM346 1532v-6q10 0 4 6h-4zM377 1558q-1 7 -10 -6h4zM378 1560q1 3 3 3z" />
    <glyph glyph-name="c" unicode="c" horiz-adv-x="684" 
d="M228 -16q-22 0 -58 6q-34 18 -54 17t-44 3q-53 18 -107 51q-6 12 -18 25q-29 53 -39 117q-8 86 -10 102v62q0 6 4 10q12 47 18 88q39 96 76 163q37 68 113 167q20 20 26 14q55 26 66 18q30 -6 53 -18q43 -16 94 -49q18 -8 31 -35q15 -15 -8 -33q-2 4 -15 -8
q-18 -2 -43 -14q-7 -12 -37 -65t-30 -77q6 -27 14 -84q12 -18 5 -47t-7 -57q8 -23 -8 -43v-31q6 -2 14 -10q14 2 33 18t65 41q43 29 76 62q43 27 58 49l43 43q35 33 28 29q6 16 13 26q93 93 133 168q31 25 49 10q16 -6 8 -26q9 -22 -45 -91t-168 -227q-6 -34 -35 -58
t-44 -60q-14 -36 -30 -50t-23 -23t-11 -13q-13 -35 -66 -76q-20 -20 -37 -39q-8 -18 -39 -33q-12 -8 -14 -16q-8 -6 -30 -6z" />
    <glyph glyph-name="d" unicode="d" horiz-adv-x="833" 
d="M227 674q-2 0 0 -6q-7 -5 -21 -20q-13 -15 -18 -19q-20 -29 -27 -38t-11 -32q-6 -14 -23 -24q-16 -16 -14 -48q12 -4 0 -22q-18 -12 -15 -43q16 0 -4 -14q0 -2 -4 -48q-6 0 4 -22l4 -21q18 -14 29 -10q53 29 74 68q18 25 20 37q23 45 29 80v147q-2 21 -6 27t-13 2
q-2 6 -4 6zM330 1542q0 18 18 19h53q53 12 75 3t38 -22q14 -23 37 -43q12 -16 24 -29q20 -16 23 -36q18 -8 27 -54q14 -16 12 -30q14 -29 14 -68q12 -2 -4 -22q-8 -51 -10 -68v-55q-12 -20 -5 -54t-14 -84v-30q20 -31 0 -74q-4 -16 -4 -47v-137q-2 -70 4 -115q23 -59 0 -137
l-14 -238q14 -66 0 -117l4 -20q-2 -6 6 -6l9 8q4 6 -5 4q18 27 23 51q29 74 75 149t66 121t54 101l22 37v-14q10 22 10 24q16 41 47 19q14 -8 0 -48t-9 -62t-42 -136q-2 -16 -22 -37q-6 0 -6 -16q-8 -12 -15 -48q-33 -84 -47 -163q-12 -41 -22 -72t-11 -66q-20 -38 -28 -64
t-28 -46t-31 -40q-11 -21 -36 -40q-23 -23 -57 -37q-39 -23 -90 -16h-27q-92 20 -137 100q-6 43 -24 63q-8 37 -33 132q-2 66 -19 112v58q14 20 0 43q2 10 -2 13t-12 -3l-33 -21q-14 0 -34 -10q-59 -10 -109 10q-31 8 -61 25q-20 6 -37 22q0 16 -23 29q-2 20 -20 35
q-2 4 -4 11t-7 11q-2 27 -22 43q-14 25 -10 41q16 37 14 54q23 16 6 37v16q6 41 23 70l32 90q-6 8 5 14q4 10 14 20t19 30t30 40q20 8 16 16q13 6 17 15l4 2q12 16 10 18q31 19 43 25t22 14t15 4q16 18 33 13q57 10 71 16q14 14 23 18q16 55 14 93t10 79t9 95q18 100 20 163
q16 66 15 123q18 20 8 58v18z" />
    <glyph glyph-name="e" unicode="e" horiz-adv-x="657" 
d="M434 618q0 12 4 13q0 47 -8 63q-2 35 -22 62q0 8 -9 8q-25 43 -67 61q0 10 -8 0q-12 14 -13 -4q0 -6 -6 -12q-4 -61 -4 -91t18 -46q43 -33 89 -58h18q8 -2 8 4zM325 549q-19 0 -28 -45q6 -68 4 -123q20 -4 4 -23q0 -23 6 -53q12 -31 13 -57q2 -4 14 -35q12 -16 16 -27
q20 -10 4 -22q6 -12 -12 -27q-6 0 -4 -18q6 -9 6 -15t-6 -12q-14 12 -27 0q-10 -4 -28 -7t-40 -17q-42 -27 -122 -7q-23 14 -43 23q-25 29 -37 57q0 20 -8 23q-2 31 -23 57q-6 47 -26 88q0 47 -8 66q4 8 4 18v287q8 8 8 18q20 18 14 47q6 41 4 64q4 23 13 37t11 32t15 31
q6 20 19 15q20 6 31 6t32 12t70 -2q27 -4 84 -8q45 6 84 -8q10 6 20 -11q20 -14 49 -16q29 -12 45 -23q19 -6 35 -26t27 -35q41 -45 53 -111q12 -41 4 -75q0 -37 -35 -66q-20 -12 -53 -18q-27 0 -57 -13h-27q-41 10 -80 13q-6 6 -25 6z" />
    <glyph glyph-name="f" unicode="f" horiz-adv-x="712" 
d="M412 2q-39 117 -119 203q-18 33 -25 20q27 -141 72 -334q25 -61 41 -139q16 -41 31 -84q14 -10 24 -26q16 -6 33 4q43 47 25 90q-8 123 -56 211q-10 30 -26 55zM340 985q8 0 8 6q41 49 49 92q18 39 0 64q0 25 -16 14q-8 2 -10 -8q-13 -22 -19 -55q-14 -45 -12 -107v-6z
M27 -27l-23 207q0 76 -6 152q6 20 6 66t4 171q12 61 10 123q8 18 -10 25q-14 8 -26 20q-4 18 -17 33v27q10 14 17 4h26q18 -3 22 19q1 5 3 9t2 34t20 100q35 59 47 106q55 123 88 180q12 16 33 49q18 10 43 15h31q27 -6 63 -2h31q37 -4 54 -4t28 -23q29 -14 45 -67
q27 -55 10 -125q-10 -28 -24 -54t-25 -57l-28 -43q-16 -29 -23 -35q-10 -31 -37 -65q-25 -20 -51 -47q0 -5 -7 -15t-7 -25t3 -63t-10 -96q-14 -35 -16 -76q0 -8 36 -44t41 -42t7 -8q27 -6 80 -10q61 12 102 16q12 6 80 27q61 14 72 22q33 18 45 45q31 14 47 -2t14 -26
q16 -16 -4 -37q-6 -13 -13 -29q-11 -25 -50 -42q-40 -18 -160 -48q-119 -30 -158 -37h-67q-27 -15 -9 -33t31 -39q16 -12 13 -24l59 -117q76 -106 82 -197q18 -72 12 -131v-137q-2 -2 -7 -25t-28 -49q-12 -20 -39 -38q-1 -3 -21 -9t-52 -26q-78 -25 -156 -13q-15 5 -51 23
q-6 18 -25 31l-6 12q-18 47 -57 86q-10 16 -10 27v4q-41 84 -60 174q2 12 -4 16q-14 57 -20 137z" />
    <glyph glyph-name="g" unicode="g" horiz-adv-x="931" 
d="M233 -467q5 -13 6 -26q1 -11 24 -25t36 -8q8 -6 22 5t36 14t36 18q16 31 41 40q25 18 37 48q45 72 51 168q18 47 4 86v16q6 9 10 35t-3 44t-9 26q-2 9 -10 1q-49 -43 -100 -98q-4 -1 -22 -29t-36 -53q-18 -43 -61 -86q-23 -14 -45 -48t-17 -81q10 -18 0 -47zM291 692v6
q16 20 8 41q0 48 -33 66q-12 14 -45 9t-49 -17q-10 -14 -27 -45q-62 -146 -47 -191q20 -20 15 -41q18 -6 4 -12q6 -12 14 0v4q55 74 73 91t75 85q12 0 12 4zM496 109q8 18 8 53t-23 110v29q-6 31 -6 43q-8 33 -8 78q8 18 0 24q0 14 -10 5q-7 14 -5 -6q1 -19 -18 -31l-24 -33
q0 -20 -13 -33q-16 -12 -37 -37q-16 -29 -36 -37t-82 -24q-70 -6 -118 12t-77 25q-18 20 -33 14q-68 31 -77 96q-14 177 36 305q25 45 37 70q18 51 45 70q29 33 33 37q31 37 47 18q27 0 58 -10q59 -6 102 -27q43 -6 65 -24q34 -30 60 34q40 54 94 27q27 12 45 -4
q77 -25 90 -51q20 -20 29 -58q8 -16 8 -49q8 -6 8 -14q18 -43 25 -88q8 -16 8 -47v-25q14 -37 14 -82q-5 -27 3 -50t8 -27t4 1q18 -27 61 11q49 49 64 61q23 10 51 53q6 8 14 15q25 8 39 -6t2 -27q-4 -12 -4 -29q-21 -27 -65 -71q-33 -27 -46 -50q-27 -35 -71 -73
q-8 -16 -41 -47q-26 -53 -19 -115v-80q12 -45 -6 -88q-4 -20 -8 -61q10 -31 -8 -76q-6 -45 -33 -82q-4 -30 -10 -48t-8 -36t-15 -33q-10 -24 -41 -55q-25 -18 -40 -49t-54 -43q-142 -58 -194 -45q-16 20 -39 4q-30 12 -70 20q-25 20 -37 33q-6 12 -18 33q0 33 -6 41v20
q6 70 32 111q27 41 52 92q41 68 86 113q43 55 79 107t68 85z" />
    <glyph glyph-name="h" unicode="h" horiz-adv-x="1017" 
d="M301 817q5 11 -4 6h-4l4 -6h4zM293 711h8q0 43 -12 59q0 4 -10 0q0 12 -13 0q4 -29 19 -55q4 -4 8 -4zM252 596q29 29 39 41q10 11 1 23t-26 18q-4 16 -4 6l-4 -6q-4 -41 -6 -82zM262 1128v-6l4 6h-4zM279 1094q-8 -33 -13 -45v-54q10 -8 27 -55q12 38 3 62t1 47
q23 23 -8 36q-8 1 -10 9zM244 1251l4 11l-4 4h-6q-2 -13 6 -15zM326 467v-23q20 -18 24 -41h4q98 126 178 177q37 8 48 16q39 12 59 0q86 -20 127 -35q35 -2 53 -20q57 -43 31 -117q-14 -66 22 -113q6 -6 13 0q33 43 39 55t41 66q16 39 56 86q40 46 50 68t19 24l26 -6
q6 -10 4 -18v-33q-4 -23 -26 -57q-25 -49 -38 -93q-12 -43 -18 -49t-11 -28t-21 -45q-14 -29 -16 -82t-31 -113q-30 -61 -74 -82q-10 -10 -29 -20q-20 -16 -37 -31q-8 -4 -35 -8h-34l-54 8q-45 16 -78 45q-23 39 -32 74q-25 117 -11 233q12 55 0 127q-2 23 -18 0h-10
q-72 -25 -105 -119q-4 -14 -12 -22q-27 -57 -51 -125q4 -78 -12 -107q16 -16 12 -102v-66q-6 -20 -29 -24q-2 -39 -14 -39l-33 -4l-6 -45q-27 -20 -27 -29q-10 -6 -34 -18q-23 23 -31 0q0 -14 -31 -31q-6 4 -12 -4v-10l-15 -4q-25 2 -77 10q-19 10 -41 26q-2 5 -11 21
l-14 29q0 14 -6 34q14 12 -4 27q-16 43 -8 74v18l-6 47l2 101q6 295 4 469q14 154 6 303v112q26 57 14 95v53q0 39 4 117q-2 51 13 84v26q26 93 59 103q44 6 62 6t23 -3t3 -12v-6q35 -12 37 -22q6 -12 14 -6q37 0 27 -13v-22q-4 -12 -4 -21l8 -12q43 10 55 -18q20 -8 0 -21
v-63q20 -14 0 -29v-23q20 -14 17 -28l20 -90q0 -19 6 -41t4 -41v-47q-4 -37 -22 -56l12 -6q0 -31 6 -72q-6 -82 -26 -159q4 -18 -5 -35q0 -2 5 -19q20 -12 8 -34q-6 -43 -6 -72z" />
    <glyph glyph-name="i" unicode="i" 
d="M227 631q-12 12 -24 0q-2 0 -23 4l-30 12q4 13 -11 8q-12 18 -45 29q-20 20 -41 27q-10 20 -22 43q-2 14 7 21t19 18q12 31 37 26q70 14 121 -31t66 -45q10 -6 16 -16q0 -8 6 -34t-35 -54q-27 -6 -41 -8zM745 559q-2 -27 -16 -65q-119 -133 -207 -299q-39 -39 -61 -105
q2 -14 -10 -31q-20 -41 -62 -88q-3 1 -33 -17t-98 -13h-22q-14 2 -43 12q-2 12 -19 8q-45 18 -61 47q-18 23 -47 68q-4 16 -17 22q0 4 -41 82q-27 86 -35 103q-6 94 -6 174q8 68 37 129q14 10 39 30q25 8 55 -8q10 4 33 -14q62 -5 86 -39q45 -14 53 -70q12 -16 11 -36
q14 -12 0 -25q-6 -10 2 -33t-9 -65q-4 -20 -2 -36t-14 -42q4 -10 -12 -27q-4 -33 4 -67q10 -8 8 -19q16 -6 16 0q59 45 103 109q16 10 12 16q57 43 97 113q79 138 167 213q35 28 65 14t27 -41z" />
    <glyph glyph-name="j" unicode="j" horiz-adv-x="641" 
d="M98 -330q0 70 16 121t-8 78h-8q-14 -41 -47 -86q-6 -45 -26 -78q-5 -31 -19 -68t-14 -58t13 -51t15 -83q14 -14 17 -31q21 12 29 18t6 9v29q0 14 4 34q18 6 10 19q12 16 8 31q4 53 4 69v47zM387 348q0 -8 4 -8h8q20 20 31 29q51 27 92 59q92 85 131 122t52 25
q28 -20 28 -40q-10 -27 -45 -74t-229 -176q-8 -6 -29 -23q-10 -16 -32 -38t-19 -52q12 -42 4 -60t-8 -36v-27q2 -8 -4 -14q10 -29 0 -60q6 -29 -11 -55v-18q-4 -12 -4 -18t-4 -46q4 0 -6 -14t-6 -29q-4 -49 -4 -63t-4 -31q-10 -16 -15 -49q18 -29 0 -70v-4q0 -45 -12 -102
q2 -14 -4 -35q6 -12 -14 -21q-6 -10 -25 -18q-8 -14 -14 -27q0 -25 -21 -43l-34 -34q-12 2 -25 -17q-10 -4 -35 -12q-33 6 -61 -14q-10 0 -17 -7q-23 12 -53 0q-10 6 -18 10t-28 15q-20 12 -28 16q-16 16 -16 39q-6 20 -18 39v15q0 43 -11 94v18q18 61 17 103q8 16 8 30
q23 80 39 129q0 12 12 19q16 41 50 88t50 80q29 29 52 67q20 18 14 35q6 29 4 53q10 82 10 148v90q-6 46 6 84t-6 88h-10q-6 -10 -23 -39q0 -14 -16 -35q0 -2 -10 -26q-6 -31 -29 -48q0 -6 -8 -5t-31 -11q-6 0 -19 -8t-46 4q-12 27 -19 59q0 37 26 75t71 112q33 44 45 72
t27 46t18 33v21q4 16 4 24q1 8 17 20t22 13h51q16 -4 43 -8t35 -7t10 -3q50 -17 68 -64q0 -12 6 -26q8 -39 8 -107q18 -43 0 -92v-39q8 -16 8 -51q12 -18 0 -49v-21zM252 909h-4q-18 20 -49 15q-16 14 -49 20q-14 20 -31 35q0 8 7 15t7 28q6 27 35 31q63 29 119 -4
q53 -23 73 -25t19 -10q0 -8 17 -34t-25 -56q-12 -14 -31 -15l-4 -4l-25 -4h-18q-14 8 -41 8z" />
    <glyph glyph-name="k" unicode="k" horiz-adv-x="778" 
d="M360 993q0 -10 -10 -45v-37q0 -6 -6 -26q0 -4 8 -4t8 4l13 63q2 6 -13 15v30zM360 539v-31q8 2 12 4q3 2 1 6q18 31 2 47q-14 -16 -15 -26zM373 672q-10 -10 -8 -29h8q16 20 2 29h-2zM340 -165q0 -11 4 -32l-4 -6q-27 27 -37 33h-8q-18 6 -19 -12l-4 -4q-2 -8 11 -28
t7 -31t-18 -24q-14 -13 -20 -14q-20 8 -51 0h-41q-38 -7 -70 3t-39 26q2 20 -12 12q-6 37 -21 37q0 8 -6 35v25q-12 43 -10 71v133q6 35 6 64q8 51 -10 80q5 9 -6 4q8 63 8 186t-8 289q10 18 6 23q2 70 -6 147v22l16 130v40q6 80 15 125q4 74 10 109q16 61 30 117
q23 35 23 73v7q8 14 14 12q55 16 119 10h76q53 -6 80 -37q6 -6 17 -18t16 -17q45 -49 36 -125q4 -31 -12 -77q-4 -29 -16 -90l-4 -21q-6 -10 -17 -51q-4 -31 -10 -45q-4 0 -4 -12v-21q0 -6 4 -2q8 2 6 -12l-6 -21q-4 -20 -4 -26l-6 -11q6 -10 6 -16v-21l4 -6q2 -8 -12 -16
q-8 4 -19 -12v-9q6 -8 11 -8q-4 -4 -5 -20l-6 -6v-25q0 -6 6 -12l-6 -21q6 -23 6 -57h5q14 17 16 23q4 6 -6 4v26q6 2 6 10h10q0 -16 4 -36q16 -29 0 -72v-37q6 -6 6 -25v-28l20 20q11 12 15 17q39 31 43 32q14 14 37 15q16 23 33 12q27 1 70 -19t59 -23t16 -30l-10 -20
q0 -2 -6 -9t-8 -14q-10 -10 -31 -9t-43 -27q-31 -25 -80 -74q-46 -32 -131 -117q-18 -18 -20 -47v-14q27 -20 30 -29q55 -20 72 -29q51 -16 84 -49q27 -6 43 -22q18 -12 65 -37q30 0 52 -43l-11 -25q4 -4 -4 -4q-14 -18 -41 -20q-10 4 -58 15t-110 54q-14 14 -41 27
q-23 29 -71 37q-6 -20 -25 -47q23 4 23 -17q10 -35 -13 -71q-6 -12 -8 -72t-7 -62q-5 0 -5 -11z" />
    <glyph glyph-name="l" unicode="l" horiz-adv-x="622" 
d="M16 567v-24q12 4 11 10v6l-4 8h-7zM23 768v-4l4 4h-4zM27 1047h-4q-2 -3 0 -5t4 0v5zM37 1016h-10l10 -8v8zM233 1008q0 20 -8 34v17q16 23 13 33q8 14 -13 12q0 -13 -11 -59t-6 -82t-1 -93v-65q2 -8 14 -5t12 9q5 39 17 71t0 68q0 23 -17 29v31zM283 344q-6 -16 -11 -59
q2 -8 11 -6q20 35 20 65l-4 6h-4zM303 229l6 7l-6 6l-2 4l-2 -10zM283 56q0 -21 -7 -46v-43l23 -4q25 23 11 40t-7 38q16 29 0 65q-20 -29 -20 -50zM-20 559q0 43 8 59v3q12 23 10 47v61q12 33 0 62v14q0 14 4 39v92q-2 26 8 50t0 45t-8 28q10 57 10 102q4 12 5 37t-9 35v88
q16 39 4 53q4 29 4 47v29q-8 49 -4 119l4 4q2 8 4 12t7 2q37 14 61 10q45 -12 72 -4q33 -2 51 -20q23 -16 43 -37q6 -2 22 -25q39 -20 23 -75q-4 -38 -4 -64t-8 -45q-6 -49 0 -115q20 -20 12 -36q8 -33 -12 -84q0 -12 -15 -33q10 1 10 -15t-6 -23t11 -13q20 0 12 -15
q-4 -20 -4 -26v-19q12 -16 0 -33q4 -14 -12 -30q0 -4 -7 -19q6 -6 7 -26q16 -12 -7 -41q4 -16 11 -19q0 -18 -21 -37q-12 -4 -28 -28v-23q0 -4 16 -16q16 8 12 -8q-16 -29 -22 -41h6q-4 0 -6 -19q14 -14 0 -37v-4q0 -16 16 -28q-6 -12 -10 -33q-4 0 -6 -19q16 -61 16 -114h6
q4 4 9 8t8 8q26 13 13 32t-9 28q0 10 -4 14v14q18 18 20 29l6 4h6q12 0 7 -8l26 -228v-77q-3 0 -5 -10q18 -24 17 -56v-45q12 -20 2 -38t-10 -38v-35q0 -31 8 -61q4 0 5 -18q0 -5 10 0l12 10q53 66 76 125q51 98 86 163l49 91q13 27 27 41q18 14 24 18q12 -6 27 -16
q0 -6 4 -52l-48 -88t-54 -100q-53 -120 -75 -156t-36 -88q-8 -72 -61 -161q-24 -69 -103 -115q-29 -20 -74 -16t-63 8h-72q-16 16 -31 22q-16 53 -26 49q-6 4 -10 27v29l-4 55q-2 37 -11 88l-4 115v57q0 52 -5 66t-5 20t-4 -2v117q2 166 -14 356zM221 1122q16 10 17 21
q12 13 -4 11q-8 -1 -13 -19v-13zM221 1118l4 -14v4zM266 1184h6q15 14 15 24q-20 -6 -21 -18v-6zM326 182v-4l4 4h-4z" />
    <glyph glyph-name="m" unicode="m" horiz-adv-x="1263" 
d="M684 313l-14 -63q14 -12 -2 -27l-17 -8q-2 6 -22 -10q-5 0 -19 8t-36 17t-35 34q-4 34 6 70t-2 90q4 88 -19 143q-4 18 -12 4q-14 -10 -33 -26q-27 -12 -35 -43q-12 -29 -18 -45l-37 -56l-39 -53h2q-24 -16 -37 -74q4 -8 -8 -20q-6 -23 -31 -39q-6 -10 -20 -10
q-20 6 -42 -6t-48 -4t-60 20q-27 20 -34 39q-31 33 -43 80q-8 53 -29 155q0 84 -10 170q2 29 -4 66v80q2 37 -23 43q2 6 0 8t-10 0q0 6 -4 18q12 37 20 44q37 37 70 12q31 -10 51 -27q29 -8 86 -29q55 -8 90 -53q12 -8 21 -20q12 -8 8 -35v-145q8 -20 -4 -54q-6 -37 0 -73
q12 6 4 -9q12 -2 12 4q17 17 35 33t26 26t13 13q49 39 84 94q18 14 14 41q12 29 31 31t20 2q65 16 105 -55q12 6 12 -8q16 -29 17 -52q12 -12 3 -28t-3 -54h14q37 41 53 68q16 12 10 21q12 14 7 26q14 15 18 23t10 14t13 14t14 11q31 18 51 0q33 -14 94 -39q18 -2 27 -15
q27 -10 31 -14q14 6 14 -6q10 0 14 -17q10 0 15 -16q20 -33 20 -78v-65q12 -33 -4 -70v-33q-4 -25 -4 -49q4 5 10 15t15 19t42 62q51 65 80 123t62 111l35 33q18 -10 18 -29q-37 -74 -115 -250q-71 -124 -113 -170q-42 -45 -67 -73t-33 -35q-59 -37 -75 -47q-33 -12 -74 -5
q-10 10 -31 21q-29 35 -53 96q0 16 2 25q12 10 0 16q14 29 10 59t0 58t4 67q12 25 0 43q-6 16 -6 5q-29 -47 -63 -89z" />
    <glyph glyph-name="n" unicode="n" horiz-adv-x="989" 
d="M66 774h22q43 0 78 -22q57 -8 100 -39q57 -12 86 -72q23 -33 33 -78q4 -4 8 -4q51 20 85 37t81 27q39 14 72 10q53 0 90 -19q31 -10 33 -22q31 -43 32 -92q4 -12 7 -23v-106q-2 0 -7 -13q12 -68 37 -122l8 4q14 16 19 26q14 14 14 29q37 43 68 106q14 20 14 41q8 0 4 4
q27 94 45 146q12 10 27 8q14 -6 14 -14l-4 -8h4q8 -8 4 -23q4 -16 -4 -27q-20 -66 -42 -118t-85 -174q-39 -94 -46 -106t-36 -30l-4 -6q-10 -27 -51 -47q-25 -8 -55 -8q-20 14 -49 43v12l-19 19q-23 47 -37 86q-10 74 -30 118q-4 14 -9 39q-4 25 -6 33q6 16 -8 17q0 2 -10 4
q-33 -20 -51 -45t-56 -62q-14 -18 -41 -67q-4 0 -8 -19q4 -23 -22 -49q-10 -41 -19 -98v-127q0 -5 -22 -27q-47 -14 -90 -31h-23q-15 4 -37 4t-51 -4h-10q-41 12 -82 13q-12 4 -31 18l-2 14l-2 4q4 29 -10 54q0 12 -4 41q0 55 -4 116v82q4 143 4 197q17 35 4 76q14 2 -4 6
q0 78 8 127q20 43 6 76q16 12 8 16v27q4 10 7 15q4 7 49 7z" />
    <glyph glyph-name="o" unicode="o" 
d="M709 666q87 18 97 -38q7 -43 -42 -57l-39 -8q-68 4 -123 27q-59 18 -110 53q16 -55 2 -86q0 -20 -13 -57q-12 -60 -45 -118t-51 -108t-57 -84q-44 -30 -159 -30q-31 0 -51 6t-22 12q-10 25 -49 54t-37 44q-4 45 -14 72q-8 27 -8 39q12 33 -4 96q-8 59 -8 73t-11 75
q0 55 19 98q16 27 30 45q0 6 1 8t5 0q51 12 84 -4q29 0 50 -10q18 0 30 -12q12 -4 11 -15l30 -53q12 4 8 -8q23 -15 20 -71t9 -126q4 0 4 -10q18 -27 13 -57v-33q4 -8 4 -15t6 -12q6 0 25 29t40 123q20 63 2 139q6 25 -6 37q-6 16 -22 23q-4 4 -17 4h-14q-68 16 -102 71
q-8 18 -15 41q0 23 9 32t22 17q2 6 47 13q37 0 70 8h26q12 4 19 -8q31 -14 55 -35q14 2 21 -10q10 0 10 -12t12 -27q10 -6 14 -19q17 -12 31 -18t20 -16t23 -23q2 0 5 -3q2 -3 12 -7q10 -5 32 -17t50 -18t51 -14z" />
    <glyph glyph-name="p" unicode="p" horiz-adv-x="892" 
d="M287 516q4 0 2 -12v-21q14 -27 -2 -43q6 -16 -13 -32q0 -10 -2 -17v-4l9 -8q16 -10 28 -25q10 -2 23 -6q16 4 12 6v6q8 4 20 8t21 13q68 57 76 113q14 14 16 44t2 74q0 43 -6 88q2 37 -22 66q-10 16 -23 14q-14 10 -37 -10q-39 -2 -53 -35q-20 -2 -43 -53q8 0 4 -20
t-12 -72q0 -8 -15 -21q18 0 9 -22q2 -6 -7 -15q0 -16 13 -16zM246 403q14 39 0 64q16 16 0 22q8 -16 -10 -38q-2 -32 10 -48zM272 -68h-10q-16 -11 -16 -55h10q16 29 16 55zM272 -182v14l-6 -14h6zM-2 -580v209q20 45 -4 68v6q2 12 -6 4q8 55 6 107v98q2 86 -6 86
q10 16 -11 33q2 43 -14 90q0 51 4 69q8 18 4 43q4 55 6 105v22l17 160q4 53 4 78t-4 57v68q4 135 4 170v82q0 2 -4 10q-20 23 -10 27q16 25 28 22q31 14 51 10q23 16 43 11h27l17 -6q14 20 26 -5h17q35 -10 47 -22q28 -12 49 -59q25 -27 20 -64q6 -20 -10 -53q14 14 27 10
q8 4 18 8t26 18t15 7h16q66 21 123 -6h35q31 14 49 0q27 4 39 -4q25 4 47 -13q31 -12 43 -37q18 -10 27 -34q6 -4 4 -19q18 -39 14 -69q8 -7 4 -15t-4 -34t-6 -68q6 -10 -3 -49t-20 -57t-22 -44q49 31 86 43h6q37 18 66 47q25 20 26 23l15 8h10q18 0 10 -12q8 -9 6 -25
t-22 -44t-34 -36q-12 -8 -28 -13t-18 -6t-12 -17q-14 0 -31 -17q-9 2 -86 -47q-16 -16 -37 -31q-16 4 -47 -12q-27 2 -57 -6q-35 -14 -76 -39h-4q-16 -10 -53 -23q-41 7 -69 7t-77 16q-43 18 -65 18q-6 0 -11 -18q0 -14 17 -31l6 2q2 -2 0 -12q-6 -5 -12 -21t-8 -21t-3 -9
q14 -12 0 -33v-4q0 -2 11 -27q-8 -20 -11 -30q5 -112 11 -121h6q8 14 16 22q27 16 4 27v20q0 10 -4 23q16 27 19 29h8q4 -49 15 -91t5 -120q4 -33 -4 -60q0 -6 -16 -10v-6q2 0 7 2t3 4q16 -10 16 -51v-43q0 -13 -6 -31t-4 -39q10 -16 -10 -51q0 -12 -6 -35q6 -16 -2 -16v-78
q0 -4 -15 -18v-43q-6 -10 -43 -11q-6 6 -13 6t-7 -12q8 -8 4 -26q4 -16 -10 -29q0 4 -10 4q-8 14 -17 -4q0 -2 -26 -21l-3 -10l-4 -4q2 -4 0 -5q-1 -1 -19 -1t-61 6q-18 18 -32 21q2 8 1 10t-5 0q-29 87 -29 112zM266 -375q0 18 -4 35q16 25 0 59q-6 -12 -16 -47
q20 -14 10 -39q7 -6 10 -12v4z" />
    <glyph glyph-name="q" unicode="q" horiz-adv-x="854" 
d="M244 354l43 22q23 12 47 34q24 23 44 39q19 16 36 64q18 48 27 67q9 18 5 36q4 16 -12 82q-17 22 -31 31q-14 8 -20 12t-31 7q-16 10 -33 6q-14 2 -28 -6q-16 10 -31 -11q-14 -12 -37 -43q-47 -78 -67 -162q-6 -12 -10 -53t14 -92q18 -18 26 -33q20 -14 37 -8q20 14 21 8
zM418 -510q0 20 -17 16q-36 5 -61 -20q-45 -41 -64 -111q6 -14 -12 -41q2 -12 6 -45q0 -10 19 -12q70 14 119 94q23 16 10 33q8 23 4 41q4 35 -4 45zM422 -350v123q4 61 -4 104v76q0 51 -6 104q6 96 -11 203v31q-68 10 -96 -12q-68 -53 -162 -56q-8 0 -45 4q-10 16 -30 11
q-78 27 -113 104q-8 29 -33 98q4 39 6 56q55 225 123 305q33 25 41 28q102 39 191 27q76 12 129 -8q18 8 34 -14q18 6 19 14q10 49 16 57q2 13 5 19t8 4q16 16 20 14q43 16 59 14q82 18 150 -4q18 -2 18 -24v-31q18 -57 0 -127q-14 -86 -24 -195q-6 -18 -11 -62
q-6 -44 -14 -72t1 -73t5 -108q2 -37 13 -90q31 -39 6 -92q20 -80 10 -193v-39q0 -12 -4 -82v-210q0 -18 18 -37q33 -4 62 -19q55 -8 90 -30l86 -37q55 -8 72 26q72 74 141 142l6 12q14 10 22 9t7 -13q34 -74 -47 -187q-34 -39 -64 -54t-39 -21q-59 -16 -125 -15
q-35 4 -116 23q-10 6 -28 13t-24 10q-6 4 -14 6t-18 6t-18 7t-17 -13l-6 -7q-6 -31 -29 -73q2 -18 -16 -54q-16 -25 -54 -51q-14 -14 -26 -37q0 -8 -19 -22q-25 -6 -53 -31q-6 10 -27 -10q-94 -33 -204 -37h-43l-43 -4q-16 2 -35 22q2 39 -21 60q-16 84 -26 180
q8 100 75 168q39 35 74 61q35 35 70 41t47 4q41 16 41 58z" />
    <glyph glyph-name="r" unicode="r" horiz-adv-x="610" 
d="M197 473q0 16 -11 41q2 6 -2 14q0 16 -18 17q-36 18 -49 2q-5 -19 -17 -27t-21 -17l-21 -21q-13 -13 -35 -9q-29 16 -31 29q4 8 4 20q4 10 8 23q6 8 10 26q16 12 -2 17q-8 6 -32 12q-27 45 0 84q16 33 43 43q13 14 29 17q67 13 102 -3q32 -10 24 -28t-2 -39
q43 -20 76 -17h20q10 10 17 7q43 10 84 0q10 0 18 -15q10 -8 8 -22q7 -21 15 -27t4 -30t4 -58q8 -35 0 -72q0 -45 -8 -80q4 -8 -4 -16q-8 -27 6 -57q4 -4 16 -11q10 4 10 7l9 4q20 20 28 47q27 51 60 80q6 12 18 26t12 21q11 20 13 21t15 24t24 16h16q2 -2 9 -18t-5 -35
l-12 -42q-2 -7 -31 -49q-31 -45 -45 -73t-25 -48t-18 -56q3 -32 -8 -58q-8 -12 -19 -34q0 -8 -28 -26t-35 -26q-6 -8 -14 -8q-27 10 -41 -4h-25q-10 6 -37 10q5 9 -6 4q-4 2 -14 2l-58 66q0 23 -14 37q-4 29 -5 38t-5 34q4 25 -4 36q2 20 0 39q8 49 0 88q2 14 0 33v41z" />
    <glyph glyph-name="s" unicode="s" horiz-adv-x="589" 
d="M115 723v4q2 18 -21 33q4 12 -8 8l-4 -4l20 -41h13zM422 164q0 -14 -6 -22t-13 -25q0 -12 -16 -39q-4 -16 -14 -29q-19 -56 -58 -108q-2 -6 -16 -13q-11 0 -25 -12t-38 -31q-19 -9 -50 -32q-10 4 -34 -9h-17q-10 18 -20 21v4q0 4 -9 -4q-4 1 -14 -13t-10 -31t-7 -17
t-40 -5q-12 4 -33 4q-51 23 -59 41q0 16 -13 29q-4 25 -4 31q12 16 -4 28q-4 18 14 43t40 66t30 53q12 43 21 47q43 72 59 138q27 39 29 75q-6 31 -13 43q4 4 3 22t-15 32q-6 35 -36 100t-44 67q-63 126 -63 142q-4 63 8 108q12 20 39 27q25 12 37 12q35 12 71 0
q37 -6 45 -26q25 -20 34 -43t15 -39q6 -15 7 -21q0 -6 -4 -43q4 -8 -9 -16q-6 -11 -18 -31t10 -33q89 -37 150 -92q70 -33 88 -125q14 -35 20 -80q6 -8 17 -12q13 5 24 16q39 12 76 87q45 76 65 91t25 3q6 6 29 -11q6 -26 5 -32t-15 -19q-8 -18 -28 -48t-30 -50
q-38 -51 -47 -61q-8 -10 -10 -15l-16 -16q-29 -33 -52 -48t-37 -36t-18 -23l-2 -4q-4 -2 -4 -16z" />
    <glyph glyph-name="t" unicode="t" horiz-adv-x="495" 
d="M8 154q0 20 -12 36v50q12 16 10 20q-6 37 -14 45v373q8 78 4 160q12 88 12 94q23 23 -2 26q2 33 2 58q10 8 9 12t-11 0h-20q-39 -10 -88 -14q-31 2 -91 2q0 4 -18 12h-4l-12 4q-6 12 0 15q74 27 98 32q59 35 125 41l20 12q4 2 0 3q8 31 9 43v26q4 29 4 35q12 22 8 53
q21 76 37 76q23 4 37 -10q14 -4 44 -9t35 -12q37 0 50 -30v-7q18 -12 18 -32q8 -6 12 -18t13 -31q12 -37 22 -58q8 -41 14 -61q2 -4 19 -15h123q35 4 45 -18q12 0 0 -20q0 -14 -12 -15h-99q-20 0 -57 -4h-12q-4 0 -7 -14l-14 -66q6 0 4 -35q12 -12 0 -32v-234q-6 -16 0 -49
q-6 -57 -4 -96v-101q6 -82 4 -161q14 -82 6 -156l4 -72q14 -41 19 -53q12 -10 16 -31q8 0 6 -20q4 -14 2 -33q20 -25 33 -61q23 -23 29 -54q18 -6 16 -26q18 -8 35 -8q14 12 19 16q33 27 45 72q4 18 16 8q14 -2 8 -15q12 -12 0 -32q-35 -74 -75 -114t-115 -87l-27 -4
q-12 4 -37 -12h-37q-31 28 -53 16q-8 0 -24 -4q-4 4 -17 4q-10 18 -67 80q-7 18 -19 32t-18 25q0 18 -15 31q-2 25 -5 34q-3 10 -8 32t-9 32q8 16 -8 31q-3 18 -15 69t-6 72v27q20 20 -2 31q-8 18 -10 34q12 30 12 50z" />
    <glyph glyph-name="u" unicode="u" horiz-adv-x="821" 
d="M-8 432q0 112 14 152q2 2 7 5t13 12t17 1q42 25 94 27q20 2 27 -23q8 -10 9 -56t-5 -65v-84l4 -84q23 -35 6 -90l12 -55q12 -43 37 -94q12 -4 13 4q33 59 45 100q74 195 90 242q29 43 37 82q14 36 19 66t15 50t15 19q16 6 26 4q12 14 19 14q2 9 5 13t9 2q101 30 131 8
q4 -6 8 -14v-9q11 -18 27 -63q14 -8 13 -20q-2 -21 61 -60q43 12 67 40q23 28 53 10q54 -32 5 -81q-5 -2 -29 -21q-57 -44 -119 -32q-45 16 -63 31q-18 16 -27 22l-24 21q-8 -37 -39 -121q-8 -63 -28 -106t-17 -58q19 -19 -27 -96q-10 -18 -14 -39q4 -25 -19 -53l-22 -45
q-4 -14 -15 -31q-45 -41 -98 -78q-61 -37 -131 -31q-31 16 -72 9q-37 12 -63 41q-27 49 -41 63q-2 51 -27 80q-6 72 -18 100v291z" />
    <glyph glyph-name="v" unicode="v" horiz-adv-x="798" 
d="M58 -18q-14 54 -13 82q0 27 -41 212q-8 55 -8 88t-4 70q4 16 -8 29q0 94 -21 174q4 16 4 25q12 23 -4 55q0 37 23 50t34 -5q64 -6 109 -45q41 -10 78 -31q12 12 24 -4q37 -10 37 -45q6 -12 13 -41q10 -25 10 -45l8 -80q6 -35 11 -59t5 -39v-56q0 -12 4 -45q16 -10 13 0
q23 23 33 54q37 68 57 102t37 80q54 102 58 113q3 10 5 12t4 0q8 12 17 8q25 4 34 6t27 -18q17 -21 34 -43q18 -23 27 -28l27 -15q18 -10 31 -17q45 -8 78 21q29 -2 39 -19q4 -24 4 -32t-2 -9q-37 -43 -43 -36q-25 -20 -58 -17q-12 4 -63 15q-41 16 -64 38q-20 23 -34 29
l-21 -45q-31 -124 -53 -150q-22 -25 -28 -47t-15 -43q4 -20 -8 -36q-10 -33 -25 -84q-12 0 -12 -17q-25 -78 -25 -102q-8 -10 -8 -31q-6 -23 -12 -57v-8q12 -12 -4 -25q0 -4 -4 -21q0 -12 -17 -16q-27 0 -41 -20q-25 -12 -59 -13h-41q-8 4 -21 4q-27 14 -65 17l-4 8
q-4 39 -27 61q-18 37 -32 91z" />
    <glyph glyph-name="w" unicode="w" horiz-adv-x="1069" 
d="M844 393q-4 0 -17 -12q-8 -2 -8 -16q-33 -74 -51 -144l-23 -67q0 -8 -12 -17q-23 -45 -65 -65q-33 -31 -95 -21q-25 10 -73 21q-31 12 -56 30q-12 16 -24 17q-6 10 -8 -4q4 -14 -2 -39q4 -33 -9 -56q-1 -6 -23 -28t-56 -37q-25 -18 -62 -12q-57 16 -86 22q-23 12 -39 12
q-29 14 -67 21q-12 12 -31 6q-14 14 -25 16q-16 16 -29 32t-20 50q0 53 -8 119q16 49 4 82q0 72 13 112q14 41 16 73t6 49q16 41 4 84q4 33 8 49q18 18 32 18t21 -6q143 -22 158 -47q4 -4 12 -8q7 -4 17 -9q10 -6 14 -24t8 -29v-24q-12 -25 -12 -47v-86l-12 -97
q16 -29 -4 -51q-6 -18 -6 -42t-5 -56q6 -33 15 -51q9 -9 20 11q10 22 26 46t25 63q12 18 0 29q-8 29 3 39q35 32 75 27q31 4 60 -9q37 -7 49 -69q16 -16 16 -39q16 -29 47 -55q10 -6 27 4q12 14 12 20l60 105q27 39 34 73q16 27 17 52q6 12 -8 24q-18 10 -52 27
q-14 18 -39 35q-10 23 -28 43q-6 12 -6 24v74q4 16 10 16q34 -8 58 -7t32 -9q51 -12 99 -10t81 -17h8q14 -6 9 -20q-1 -20 -9 -32t-12 -26q2 -10 16 -24q19 -10 70 -2q48 -4 148 59q51 -8 51 -63q-12 -33 -58 -51q-6 -5 -19 -13t-19 -12q-7 0 -29 -12t-62 -19h-112z" />
    <glyph glyph-name="x" unicode="x" horiz-adv-x="698" 
d="M565 49q12 6 4 -2q14 -14 19 -59q12 -39 -19 -74q-12 -29 -65 -45q-63 0 -146 49q-31 27 -100 88q-2 12 -17 22q-28 18 -44 -22q-35 -31 -109 -100q-14 -18 -44 -28t-58 -5q-33 18 -78 33q-18 18 -11 26q25 28 54 42q28 14 53 51q76 91 108 127t17 55q-35 82 -59 184h-9
q-35 88 -73 162q-10 55 -37 88q-16 55 -10 84q12 12 22 3t19 -3q10 16 14 16q20 17 34 29t34 14t28 4h27q59 25 93 33t69 -12q23 2 32 -27q33 -51 41 -110q11 -45 31 -150q12 -10 16 -2q16 4 21 10q70 80 129 142q14 8 14 4q66 -66 47 -156q-70 -121 -120 -188
q-25 -20 -54 -64q-16 -35 -6 -78q8 -10 10 -22q41 -66 74 -125q16 -14 21 0q18 23 28 6z" />
    <glyph glyph-name="y" unicode="y" horiz-adv-x="776" 
d="M104 -481v-27q6 -49 41 -78q27 -10 31 -14q12 0 24 -2t21 4q47 14 58 43q41 39 47 61q18 39 24 68q33 47 23 82v14q4 10 -8 11q-4 4 -19 4q-10 -6 -41 -17q-49 -10 -88 -45q-4 0 -16 -12q-26 -9 -70 -53q-12 -6 -27 -39zM598 -248v-16q2 -2 14 -17h2q14 -2 23 -14
q16 -6 4 -18q-18 -27 -39 -33q-6 2 -13 -1t-25 -4t-26 -6t-30 -38q0 -10 -10 -27q0 -20 -19 -45t-29 -47t-42 -53q-18 -6 -32 -35t-61 -43q-49 -10 -98 -31q-8 0 -22 -8q-74 -29 -123 25l-17 16q-6 8 -12 12q6 14 -8 23q-20 43 -39 76q-4 45 4 59q8 6 4 16q10 18 35 42
t53 34q66 53 113 74q74 41 149 43q16 6 26 6t19 133v14q6 33 2 70v94q2 33 -2 41v27q12 31 -4 59q2 31 -5 40t-10 3t-15 -43l-5 -20q0 -8 -7 -18t-17 -38l-21 -14q-12 -12 -41 -31h-98q-53 8 -80 15q-12 8 -41 20q-16 25 -28 31l-9 25l-8 36q-2 12 -6 17q4 37 -4 57
q4 31 -8 43q8 92 -10 184v74q2 4 2 12q2 8 0 17q10 47 0 82v6q0 12 8 18q53 0 94 -10q17 -11 29 -27q33 -27 47 -53q16 -6 20 -37l11 -20q29 -35 28 -82q0 -10 2 -21l17 -77q8 -14 14 -13q45 37 55 60q25 41 51 129q12 29 13 57q4 16 4 44t6 43t8 26q14 31 8 47q2 14 5 21
t8 5q56 29 82 5q18 -4 24 -11q4 -12 4 -14q41 -66 49 -131q8 -14 23 -57q8 -6 8 -19q58 -100 57 -174q4 -8 5 -35v-37q16 -16 4 -57q0 -59 8 -108v-162l-12 -64q0 -30 -31 -92q-11 -31 -23 -52t-12 -28z" />
    <glyph glyph-name="z" unicode="z" horiz-adv-x="612" 
d="M-279 -670q0 -14 15 -14q18 8 18 14q6 6 20 18t19 17q47 33 68 68l57 57q41 41 70 78q18 18 24 22l17 17l37 69q-33 8 -60 -8t-88 -26q0 6 -18 -13q-8 -4 -39 -22q-11 -9 -15 -17t-18 -22l-12 -4q-14 -16 -32 -50t-32 -51q-2 -14 -20 -41v-32q-4 -25 -11 -33v-27z
M469 -41q8 0 55 47q20 27 47 45q46 40 86 93q40 54 54 89h30q20 -20 0 -49q-6 -27 -22 -46t-37 -56q11 0 -57 -76l-35 -35q-25 -29 -61 -48t-64 -46q-14 0 -31 -18l-16 -17q-2 -2 -9 -13t-14 -16q-8 -5 -14 -9t-23 -52q-31 -68 -88 -151q8 -6 -10 -13q-45 -45 -84 -102
q-20 -47 -67 -98q-41 -54 -76 -82q-35 -29 -51 -54q-6 -4 -13 -20q-18 -27 -51 -45q-29 -20 -37 -29q-14 6 -28 -12q-4 2 -31 -14t-68 2q-20 20 -43 16q-29 14 -78 31q-2 14 -22 6q-8 6 -12 22q6 29 6 54q6 16 6 28q25 90 53 154q45 70 68 102q27 31 39 41q12 20 26 23
q55 55 109 70q76 39 164 55l30 12q27 10 62 45q20 27 20 47q2 6 11 15q12 45 30 71t13 39q18 35 12 64v39q2 14 0 21t-12 5q-43 -18 -121 -47q-20 -18 -68 -18q0 4 -18 4q-49 33 -84 61v8q0 4 -4 -2q-4 12 -7 17q18 20 15 37q23 31 28 39q41 27 58 73q8 12 31 42
q24 30 38 54t23 35q10 10 12 17q53 53 72 104q18 35 18 49l-4 11h-8q-20 2 -41 -15q-59 -14 -110 -59l-5 -8v-15q6 -6 -10 -12h-28l-25 8q-6 16 -27 19q-31 23 -48 41l-23 23t-13 18v12q0 17 9 10h4q18 -10 34 6q39 20 48 29q33 20 58 24t26 11q55 23 110 30q78 0 123 -22
q53 -16 86 -57q18 -8 23 -31q13 -28 9 -82q-3 -54 -26 -82q-12 -23 -49 -78q-6 -16 -25 -31q-23 -47 -71 -75q-10 -10 -21 -25l4 -10h7q66 6 96 -8q51 -16 82 -33q18 -6 16 -27q18 -16 19 -35q14 -14 8 -41v-12q4 -16 8 -41q-4 -25 -8 -39l8 -12h4z" />
  </font>
</defs>
</svg>
